# xmcd
#
# Track frame offsets:
#	150
#	10945
#	21972
#	33340
#	45010
#	57420
#	70410
#	81892
#	91777
#	102765
#	115325
#	126095
#	137275
#	151147
#	165892
#	176567
#	189515
#	198375
#	207950
#	220387
#	231287
#	244337
#	258652
#	271155
#	281805
#	291622
#	303307
#	312415
#	322407
#
# Disc length: 4490 seconds
#
# Revision: 1
# Processed by: cddbd v1.4PL0 Copyright (c) Steve Scherf et al.
# Submitted via: audiograbber 1.81.03
#
DISCID=a511881d
DTITLE=Tex Ritter - Have I Stayed Away Too Long - BCD 16239
DYEAR=2003
DGENRE=Country
TTITLE0=Tears Of Regret - 1946
TTITLE1=The Sweetest Love Of All - 1946
TTITLE2=Across The Miles To You - 1946
TTITLE3=Cold Hands, Warm Heart - 1946
TTITLE4=This Lonely World - 1947
TTITLE5=As Long As I Live - 1947
TTITLE6=I Was Wrong - 1947
TTITLE7=The First Rose - 1947
TTITLE8=Don't Blame It All On Me - 1947
TTITLE9=Tho' I've Tried (I Can't Forget You) - 1947
TTITLE10=Never Mind My Tears - 1947
TTITLE11=Gotta Have Some Lovin' - 1947
TTITLE12=I Know It Now - 1947
TTITLE13=Time Alone Will Tell - 1947
TTITLE14=Someday (You'll Want Me To Want You) - 1947
TTITLE15=Snowflakes - 1947
TTITLE16=Let's Forget - 1947
TTITLE17=Wave To Me My Lady - 1947
TTITLE18=Silver Stars, Purple Sage, Eyes Of Blue - 1947
TTITLE19=I Don't Care Who Knows It ('Cause It's True) - 1947
TTITLE20=I Can't Go On This Way - 1947
TTITLE21=Another Unmailed Letter - 1947
TTITLE22=When You Cry (You Cry Alone) - 1947
TTITLE23=You Can't Conceal A Broken Heart - 1947
TTITLE24=Gotta Make Up For The Lost Time - 1947
TTITLE25=Trouble Keeps Hangin' Round My Door - 1947
TTITLE26=Shadow On My Heart - 1947
TTITLE27=You Can't Break My Heart - 1947
TTITLE28=Beyond A Shadow Of A Doubt - 1947
EXTD=Bear Family - BCD 16239 - CD 3
EXTT0=
EXTT1=
EXTT2=
EXTT3=
EXTT4=
EXTT5=
EXTT6=
EXTT7=
EXTT8=
EXTT9=
EXTT10=
EXTT11=
EXTT12=
EXTT13=
EXTT14=
EXTT15=
EXTT16=
EXTT17=
EXTT18=
EXTT19=
EXTT20=
EXTT21=
EXTT22=
EXTT23=
EXTT24=
EXTT25=
EXTT26=
EXTT27=
EXTT28=
PLAYORDER=
